<svg xmlns="http://www.w3.org/2000/svg" xmlns:xlink="http://www.w3.org/1999/xlink" viewBox="0 0 85 85" fill="#fff" fill-rule="evenodd" stroke="#000" stroke-linecap="round" stroke-linejoin="round"><use xlink:href="#A" x="2.5" y="2.5"/><symbol id="A" overflow="visible"><g stroke="none"><path d="M0 41.58C0 20.293 17.84 3.157 40 3.157S80 20.293 80 41.58 62.16 80 40 80 0 62.864 0 41.58z" fill="#9d5025"/><path d="M0 38.422C0 17.136 17.84 0 40 0s40 17.136 40 38.422-17.84 38.422-40 38.422S0 59.707 0 38.422z" fill="#f58536"/><path d="M6.375 27.2H20.9v22.424H6.375zM52.8 11.894h12.96v12.45H52.8zm0 20.303h12.96v12.45H52.8zm0 20.316h12.96v12.45H52.8z"/><path d="M49.215 40.064l2.156-1.023 1.42-.67-1.42-.682-7.703-3.65v2.74H26.303l19.73-12.134 1.564 2.323 3.273-5.303.96-1.566.96-1.54-1.84.215-2.1.227-6.178.695 1.485 2.197L17.3 38.422l3.18 1.944L44.167 54.95l-1.485 2.197 6.178.694 2.1.227 1.84.215-.96-1.54-.96-1.566-3.273-5.303-1.564 2.323-19.73-12.134h17.364v2.64l5.547-2.64z"/></g></symbol></svg>