<svg xmlns="http://www.w3.org/2000/svg" xmlns:xlink="http://www.w3.org/1999/xlink" viewBox="0 0 74.375 85" fill="#fff" fill-rule="evenodd" stroke="#000" stroke-linecap="round" stroke-linejoin="round"><use xlink:href="#A" x="2.188" y="2.5"/><symbol id="A" overflow="visible"><g stroke="none"><path d="M16.558 12.75L0 38.59l16.558 25.84 13.227-3.324.654-44.87-13.88-3.49z" fill="#876929"/><path d="M35.05 59.786l-18.49 4.645V12.75l18.49 4.645v42.39z" fill="#d9a741"/><g fill="#876929"><path d="M32.85 21.614L35.05 80 70 62.867l-.01-43.615-8.914 1.448-28.228.913z"/><path d="M46.184 33.15l10.906-.632 10.778-19.164L40.612 0 30.44 4.364 46.184 33.15z"/></g><path d="M40.612 0l27.256 13.353L57.09 32.517 40.612 0z" fill="#d9a741"/><path d="M35.05 5.54L57.1 44.742l3.788 22.595L35.05 80l-10.46-5.13V9.64l10.46-4.1z" fill="#876929"/><path d="M69.99 19.25L70 62.867 35.05 80V5.54l22.04 39.203 12.9-25.49z" fill="#d9a741"/></g></symbol></svg>