<?xml version="1.0" standalone="no"?>
<!DOCTYPE svg PUBLIC "-//W3C//DTD SVG 20010904//EN"
 "http://www.w3.org/TR/2001/REC-SVG-20010904/DTD/svg10.dtd">
<svg version="1.0" xmlns="http://www.w3.org/2000/svg"
 width="980.000000pt" height="878.000000pt" viewBox="0 0 980.000000 878.000000"
 preserveAspectRatio="xMidYMid meet">
<metadata>
Created by potrace 1.16, written by Peter Selinger 2001-2019
</metadata>
<g transform="translate(0.000000,878.000000) scale(0.100000,-0.100000)"
fill="#000000" stroke="none">
<path d="M9420 8654 c-369 -134 -1295 -477 -1795 -664 l-350 -132 -637 -5
-638 -6 0 -823 0 -824 653 0 653 0 605 -224 c332 -123 877 -325 1210 -449 334
-124 618 -229 632 -232 l25 -7 9 99 c11 128 11 3158 0 3286 -8 90 -10 97 -30
96 -12 0 -164 -52 -337 -115z m-36 -491 c10 -61 19 -1626 11 -1980 -6 -261
-10 -323 -21 -323 -7 0 -242 85 -521 189 -279 103 -708 263 -953 354 l-445
165 -520 12 c-286 6 -521 12 -521 13 -1 1 -5 194 -9 430 l-7 427 465 0 466 0
498 186 c441 164 1038 384 1403 517 69 25 130 46 136 46 7 1 15 -16 18 -36z"/>
<path d="M3745 7773 c-261 -11 -492 -89 -726 -244 -120 -80 -303 -262 -386
-384 -349 -517 -359 -1153 -25 -1670 213 -331 565 -574 927 -640 134 -25 463
-31 590 -12 311 48 643 240 863 500 184 217 307 479 348 740 22 137 14 394
-15 522 -49 209 -118 374 -226 536 -216 324 -600 580 -950 633 -97 15 -287 24
-400 19z m225 -393 c251 -29 447 -121 629 -295 111 -106 191 -215 257 -350 75
-155 79 -180 79 -455 -1 -229 -1 -237 -28 -313 -62 -179 -145 -307 -291 -452
-165 -163 -328 -252 -546 -297 -123 -26 -365 -21 -475 9 -305 85 -541 269
-699 548 -99 173 -141 345 -133 550 9 266 113 512 297 708 110 117 190 177
325 243 192 94 380 128 585 104z"/>
<path d="M7107 5110 c-115 -20 -261 -126 -527 -385 -401 -391 -519 -497 -543
-492 -77 19 -994 204 -1169 236 -930 172 -1283 160 -2263 -75 -863 -208 -1199
-319 -1420 -467 -218 -147 -392 -338 -543 -600 -121 -211 -445 -885 -547
-1142 -90 -225 -110 -340 -81 -475 25 -117 58 -174 160 -276 111 -110 210
-165 346 -190 239 -46 529 37 691 196 96 94 167 242 393 823 87 221 118 273
194 329 l52 39 0 -1316 0 -1315 2000 0 2000 0 0 1381 c0 1311 1 1381 18 1374
47 -19 351 -75 384 -71 46 5 15 -19 439 341 786 666 1173 1004 1227 1072 43
55 97 168 116 244 32 131 18 254 -46 387 -32 68 -56 100 -126 170 -125 125
-240 185 -402 211 -74 12 -282 13 -353 1z m291 -395 c82 -20 129 -44 183 -97
51 -49 79 -102 79 -148 0 -103 -101 -199 -1090 -1034 -201 -170 -373 -316
-382 -324 -15 -13 -54 -7 -355 51 -186 37 -360 69 -388 72 -27 4 -58 9 -67 12
-25 6 -23 -17 7 -136 14 -54 29 -150 35 -212 10 -113 29 -1471 30 -2146 l0
-353 -1601 0 -1601 0 5 1138 c5 1165 7 1224 47 1463 11 64 20 133 20 153 0 34
-2 36 -33 36 -117 0 -581 -174 -727 -273 -122 -83 -140 -104 -211 -252 -63
-134 -88 -193 -232 -565 -119 -305 -171 -386 -284 -441 -41 -21 -62 -24 -148
-23 -166 1 -245 37 -274 123 -32 97 1 197 214 656 145 312 299 618 374 745
196 330 375 473 749 601 391 133 1265 339 1727 406 153 22 626 25 785 5 303
-39 531 -81 1165 -217 215 -46 477 -100 583 -120 l193 -36 31 26 c17 14 173
165 347 334 464 453 555 534 618 557 50 17 124 17 201 -1z"/>
</g>
</svg>
