<?xml version="1.0" encoding="utf-8"?>
<!-- Generator: Adobe Illustrator 24.1.2, SVG Export Plug-In . SVG Version: 6.00 Build 0)  -->
<svg version="1.1" id="Compartments" xmlns="http://www.w3.org/2000/svg" xmlns:xlink="http://www.w3.org/1999/xlink" x="0px"
	 y="0px" viewBox="0 0 161.9 162" enable-background="new 0 0 161.9 162" xml:space="preserve">
<g>
	<path fill="#FFFFFF" d="M81.8,44.7L71.3,22.3H9.1v117.1h144V44.7H81.8z M144,130.4H18V31.3h47.5L76,53.7h68V130.4z"/>
	<g>
		<path fill="#FFFFFF" d="M136.7,114.3h-38L117.7,80L136.7,114.3z M110.6,107.3h14.2l-7.1-12.9L110.6,107.3z"/>
	</g>
	<g>
		<path fill="#FFFFFF" d="M82.2,114.5c-7,0-13.4-4.8-15.1-11.9c-2-8.3,3.2-16.7,11.5-18.6h0c4-1,8.2-0.3,11.7,1.9
			c3.5,2.2,6,5.6,6.9,9.6c1,4,0.3,8.2-1.9,11.7c-2.2,3.5-5.6,6-9.6,6.9C84.6,114.4,83.4,114.5,82.2,114.5z M80.2,90.7
			c-4.6,1.1-7.4,5.7-6.3,10.2c1.1,4.6,5.7,7.4,10.2,6.3c2.2-0.5,4.1-1.9,5.3-3.8c1.2-1.9,1.6-4.2,1-6.4c-0.5-2.2-1.9-4.1-3.8-5.3
			C84.7,90.6,82.5,90.2,80.2,90.7L80.2,90.7z"/>
	</g>
	<g>
		<path fill="#FFFFFF" d="M55,114.3H37.5l-8.8-15.2l8.8-15.2H55l8.8,15.2L55,114.3z M41.5,107.3H51l4.8-8.2L51,90.9h-9.5l-4.8,8.2
			L41.5,107.3z"/>
	</g>
	<polygon fill="#FFFFFF" points="40.1,68.8 49.1,68.8 49.1,59.5 58.8,59.5 58.8,50.5 49.1,50.5 49.1,41.2 40.1,41.2 40.1,50.5 
		30.3,50.5 30.3,59.5 40.1,59.5 	"/>
</g>
</svg>
