<?xml version="1.0" standalone="no"?>
<!DOCTYPE svg PUBLIC "-//W3C//DTD SVG 20010904//EN"
 "http://www.w3.org/TR/2001/REC-SVG-20010904/DTD/svg10.dtd">
<svg version="1.0" xmlns="http://www.w3.org/2000/svg"
 width="225.000000pt" height="225.000000pt" viewBox="0 0 225.000000 225.000000"
 preserveAspectRatio="xMidYMid meet">
<metadata>
Created by potrace 1.16, written by Peter Selinger 2001-2019
</metadata>
<g transform="translate(0.000000,225.000000) scale(0.100000,-0.100000)"
fill="#000000" stroke="none">
<path d="M980 2239 c-93 -12 -231 -54 -327 -99 -425 -199 -695 -668 -645
-1120 30 -265 142 -501 327 -685 451 -449 1149 -442 1590 16 189 196 287 403
317 668 77 694 -561 1311 -1262 1220z m311 -154 c322 -56 577 -248 713 -536
59 -125 87 -238 94 -376 27 -589 -440 -1051 -1032 -1020 -379 20 -698 246
-844 597 -98 239 -93 545 13 785 70 157 228 336 371 421 114 67 253 117 384
137 62 10 225 6 301 -8z"/>
<path d="M1094 1788 c-27 -13 -44 -49 -44 -92 0 -31 -5 -35 -64 -65 -166 -81
-238 -251 -166 -391 54 -106 162 -174 302 -189 100 -11 114 -17 157 -66 26
-30 31 -44 31 -89 0 -65 -28 -113 -84 -140 -51 -25 -151 -25 -202 0 -43 21
-84 75 -84 110 0 37 -17 72 -45 90 -45 29 -105 -10 -105 -69 0 -98 84 -213
196 -268 59 -30 64 -34 64 -65 0 -76 51 -119 108 -90 32 16 42 40 42 99 0 29
4 37 18 37 34 0 143 74 178 121 72 98 83 189 34 287 -56 111 -152 173 -297
191 -136 17 -184 55 -190 149 -5 67 16 110 69 142 47 28 179 28 226 0 40 -25
68 -69 76 -123 9 -54 31 -77 73 -77 52 0 76 31 71 90 -10 103 -86 201 -195
252 -60 28 -63 32 -63 65 0 38 -15 71 -39 90 -19 15 -39 15 -67 1z"/>
</g>
</svg>
