<?xml version="1.0" standalone="no"?>
<!DOCTYPE svg PUBLIC "-//W3C//DTD SVG 20010904//EN"
 "http://www.w3.org/TR/2001/REC-SVG-20010904/DTD/svg10.dtd">
<svg version="1.0" xmlns="http://www.w3.org/2000/svg"
 width="512.000000pt" height="512.000000pt" viewBox="0 0 512.000000 512.000000"
 preserveAspectRatio="xMidYMid meet">
<metadata>
Created by potrace 1.16, written by Peter Selinger 2001-2019
</metadata>
<g transform="translate(0.000000,512.000000) scale(0.100000,-0.100000)"
fill="#000000" stroke="none">
<path d="M2965 4143 c-333 -60 -640 -266 -832 -558 l-46 -70 -166 0 c-142 0
-179 -3 -251 -23 -263 -71 -486 -256 -611 -508 l-50 -101 -117 -6 c-126 -7
-190 -21 -301 -66 -228 -93 -429 -294 -522 -522 -56 -138 -63 -180 -63 -369 0
-189 7 -231 63 -369 93 -228 294 -429 522 -522 171 -69 2 -64 1969 -64 1967 0
1798 -5 1969 64 228 93 429 294 522 522 55 136 63 180 64 364 0 147 -3 182
-23 255 -71 263 -256 486 -509 612 l-103 51 0 91 c0 301 -137 624 -363 854
-185 189 -436 321 -694 367 -110 19 -348 18 -458 -2z m500 -347 c319 -96 562
-344 657 -672 21 -72 23 -99 23 -305 l-1 -226 111 -38 c205 -71 296 -126 395
-240 48 -56 114 -189 130 -266 20 -89 9 -250 -23 -338 -83 -235 -290 -395
-546 -422 -113 -11 -3189 -11 -3302 0 -259 28 -472 195 -550 433 -20 61 -24
93 -24 198 0 105 4 137 24 199 60 183 219 342 403 402 77 25 192 31 398 19
l84 -4 46 129 c26 72 53 144 61 160 100 217 324 365 553 365 67 0 282 -29 338
-46 12 -4 30 20 74 98 143 258 270 391 464 488 160 80 254 100 445 96 128 -3
163 -7 240 -30z"/>
</g>
</svg>
