<svg xmlns="http://www.w3.org/2000/svg" width="30" height="30" viewBox="0 0 640 640" style="fill:#0C2461;width:30px;height:30px;" shape-rendering="geometricPrecision" text-rendering="geometricPrecision" image-rendering="optimizeQuality" fill-rule="evenodd" clip-rule="evenodd"><path d="M19.69 344.992h249.356c10.654 0 19.359 10.347 19.359 22.985v242.082c0 12.65-8.705 22.996-19.359 22.996H19.69c-10.642 0-19.358-10.347-19.358-22.996V367.977c0-12.638 8.716-22.985 19.358-22.985zM370.952.815H620.31c10.654 0 19.359 10.347 19.359 22.996v242.082c0 12.65-8.705 22.985-19.359 22.985H370.953c-10.653 0-19.346-10.335-19.346-22.985V23.811c0-12.65 8.693-22.996 19.346-22.996zm-351.607 0h249.37c10.653 0 19.358 10.347 19.358 22.996v242.082c0 12.65-8.705 22.985-19.359 22.985H19.346C8.704 288.878 0 278.543 0 265.893V23.811C0 11.161 8.704.815 19.346.815zm351.937 350.307H620.64c10.642 0 19.359 10.347 19.359 22.996V616.2c0 12.638-8.717 22.985-19.359 22.985H371.283c-10.653 0-19.358-10.347-19.358-22.985V374.118c0-12.65 8.705-22.996 19.358-22.996z"/></svg>